<mxfile host="app.diagrams.net" agent="Mozilla/5.0 (Windows NT 10.0; Win64; x64) AppleWebKit/537.36 (KHTML, like Gecko) Chrome/134.0.0.0 Safari/537.36" version="26.1.1">
  <diagram name="PÃ¡gina-1" id="wuS28Mm4BWOfW6OitcRz">
    <mxGraphModel dx="1500" dy="1965" grid="1" gridSize="10" guides="1" tooltips="1" connect="1" arrows="1" fold="1" page="1" pageScale="1" pageWidth="827" pageHeight="1169" math="0" shadow="0">
      <root>
        <mxCell id="0" />
        <mxCell id="1" parent="0" />
        <mxCell id="1tsikH5WmUHc8Izep_Gd-4" value="Ordutegia ikusi" style="ellipse;whiteSpace=wrap;html=1;" parent="1" vertex="1">
          <mxGeometry x="290" y="70" width="120" height="80" as="geometry" />
        </mxCell>
        <mxCell id="1tsikH5WmUHc8Izep_Gd-5" value="" style="endArrow=none;html=1;rounded=0;" parent="1" edge="1">
          <mxGeometry width="50" height="50" relative="1" as="geometry">
            <mxPoint x="200" y="270" as="sourcePoint" />
            <mxPoint x="200" y="420" as="targetPoint" />
          </mxGeometry>
        </mxCell>
        <mxCell id="1tsikH5WmUHc8Izep_Gd-6" value="Zelaiak ikusi" style="ellipse;whiteSpace=wrap;html=1;" parent="1" vertex="1">
          <mxGeometry x="290" y="380" width="120" height="80" as="geometry" />
        </mxCell>
        <mxCell id="1tsikH5WmUHc8Izep_Gd-9" value="Zelaia erreserbatu" style="ellipse;whiteSpace=wrap;html=1;" parent="1" vertex="1">
          <mxGeometry x="610" y="190" width="120" height="80" as="geometry" />
        </mxCell>
        <mxCell id="1tsikH5WmUHc8Izep_Gd-10" value="" style="endArrow=none;dashed=1;html=1;rounded=0;entryX=0.013;entryY=0.62;entryDx=0;entryDy=0;entryPerimeter=0;startArrow=block;startFill=1;exitX=1.007;exitY=0.31;exitDx=0;exitDy=0;exitPerimeter=0;" parent="1" source="1tsikH5WmUHc8Izep_Gd-6" target="1tsikH5WmUHc8Izep_Gd-9" edge="1">
          <mxGeometry width="50" height="50" relative="1" as="geometry">
            <mxPoint x="410" y="510" as="sourcePoint" />
            <mxPoint x="564" y="490" as="targetPoint" />
          </mxGeometry>
        </mxCell>
        <mxCell id="1tsikH5WmUHc8Izep_Gd-24" value="&amp;lt;&amp;lt;extend&amp;gt;&amp;gt;" style="edgeLabel;html=1;align=center;verticalAlign=middle;resizable=0;points=[];" parent="1tsikH5WmUHc8Izep_Gd-10" connectable="0" vertex="1">
          <mxGeometry x="0.0222" y="-1" relative="1" as="geometry">
            <mxPoint as="offset" />
          </mxGeometry>
        </mxCell>
        <mxCell id="1tsikH5WmUHc8Izep_Gd-11" value="Saioa hasi" style="ellipse;whiteSpace=wrap;html=1;" parent="1" vertex="1">
          <mxGeometry x="910" y="210" width="120" height="80" as="geometry" />
        </mxCell>
        <mxCell id="1tsikH5WmUHc8Izep_Gd-26" value="" style="endArrow=none;dashed=1;html=1;rounded=0;entryX=0;entryY=0.5;entryDx=0;entryDy=0;exitX=1;exitY=0.5;exitDx=0;exitDy=0;startArrow=block;startFill=1;" parent="1" source="1tsikH5WmUHc8Izep_Gd-6" target="1tsikH5WmUHc8Izep_Gd-27" edge="1">
          <mxGeometry width="50" height="50" relative="1" as="geometry">
            <mxPoint x="470" y="510" as="sourcePoint" />
            <mxPoint x="520" y="460" as="targetPoint" />
          </mxGeometry>
        </mxCell>
        <mxCell id="1tsikH5WmUHc8Izep_Gd-28" value="&amp;lt;&amp;lt;extend&amp;gt;&amp;gt;" style="edgeLabel;html=1;align=center;verticalAlign=middle;resizable=0;points=[];" parent="1tsikH5WmUHc8Izep_Gd-26" connectable="0" vertex="1">
          <mxGeometry x="-0.002" y="1" relative="1" as="geometry">
            <mxPoint as="offset" />
          </mxGeometry>
        </mxCell>
        <mxCell id="1tsikH5WmUHc8Izep_Gd-27" value="Zelaien egoera ikusi" style="ellipse;whiteSpace=wrap;html=1;" parent="1" vertex="1">
          <mxGeometry x="610" y="290" width="120" height="80" as="geometry" />
        </mxCell>
        <mxCell id="1tsikH5WmUHc8Izep_Gd-29" value="Zelaia kudeatu" style="ellipse;whiteSpace=wrap;html=1;" parent="1" vertex="1">
          <mxGeometry x="610" y="400" width="120" height="80" as="geometry" />
        </mxCell>
        <mxCell id="1tsikH5WmUHc8Izep_Gd-30" value="" style="endArrow=none;dashed=1;html=1;rounded=0;entryX=0;entryY=0.5;entryDx=0;entryDy=0;exitX=0.92;exitY=0.718;exitDx=0;exitDy=0;exitPerimeter=0;endFill=1;startFill=1;startArrow=block;" parent="1" source="1tsikH5WmUHc8Izep_Gd-6" target="1tsikH5WmUHc8Izep_Gd-29" edge="1">
          <mxGeometry width="50" height="50" relative="1" as="geometry">
            <mxPoint x="550" y="530" as="sourcePoint" />
            <mxPoint x="600" y="480" as="targetPoint" />
          </mxGeometry>
        </mxCell>
        <mxCell id="1tsikH5WmUHc8Izep_Gd-31" value="&amp;lt;&amp;lt;extend&amp;gt;&amp;gt;" style="edgeLabel;html=1;align=center;verticalAlign=middle;resizable=0;points=[];" parent="1tsikH5WmUHc8Izep_Gd-30" connectable="0" vertex="1">
          <mxGeometry x="0.0288" y="-1" relative="1" as="geometry">
            <mxPoint as="offset" />
          </mxGeometry>
        </mxCell>
        <mxCell id="1tsikH5WmUHc8Izep_Gd-33" value="" style="endArrow=none;dashed=1;html=1;rounded=0;exitX=1;exitY=0.5;exitDx=0;exitDy=0;entryX=0;entryY=0.5;entryDx=0;entryDy=0;startArrow=block;startFill=1;" parent="1" source="1tsikH5WmUHc8Izep_Gd-4" target="1tsikH5WmUHc8Izep_Gd-34" edge="1">
          <mxGeometry width="50" height="50" relative="1" as="geometry">
            <mxPoint x="480" y="120" as="sourcePoint" />
            <mxPoint x="600" y="80" as="targetPoint" />
          </mxGeometry>
        </mxCell>
        <mxCell id="1tsikH5WmUHc8Izep_Gd-40" value="&amp;lt;&amp;lt;extend&amp;gt;&amp;gt;" style="edgeLabel;html=1;align=center;verticalAlign=middle;resizable=0;points=[];" parent="1tsikH5WmUHc8Izep_Gd-33" connectable="0" vertex="1">
          <mxGeometry x="0.0661" relative="1" as="geometry">
            <mxPoint as="offset" />
          </mxGeometry>
        </mxCell>
        <mxCell id="1tsikH5WmUHc8Izep_Gd-34" value="Erreserbak ordutegian ikusi" style="ellipse;whiteSpace=wrap;html=1;" parent="1" vertex="1">
          <mxGeometry x="610" y="70" width="120" height="80" as="geometry" />
        </mxCell>
        <mxCell id="1tsikH5WmUHc8Izep_Gd-41" value="" style="endArrow=none;dashed=1;html=1;rounded=0;exitX=0.647;exitY=0.047;exitDx=0;exitDy=0;exitPerimeter=0;entryX=-0.003;entryY=0.673;entryDx=0;entryDy=0;startArrow=block;startFill=1;entryPerimeter=0;" parent="1" source="1tsikH5WmUHc8Izep_Gd-4" target="1tsikH5WmUHc8Izep_Gd-43" edge="1">
          <mxGeometry width="50" height="50" relative="1" as="geometry">
            <mxPoint x="380" y="60" as="sourcePoint" />
            <mxPoint x="650" y="-220" as="targetPoint" />
          </mxGeometry>
        </mxCell>
        <mxCell id="1tsikH5WmUHc8Izep_Gd-44" value="&amp;lt;&amp;lt;extend&amp;gt;&amp;gt;" style="edgeLabel;html=1;align=center;verticalAlign=middle;resizable=0;points=[];" parent="1tsikH5WmUHc8Izep_Gd-41" connectable="0" vertex="1">
          <mxGeometry x="0.1067" y="1" relative="1" as="geometry">
            <mxPoint x="1" as="offset" />
          </mxGeometry>
        </mxCell>
        <mxCell id="1tsikH5WmUHc8Izep_Gd-43" value="Erreserba ordua ezabatu" style="ellipse;whiteSpace=wrap;html=1;" parent="1" vertex="1">
          <mxGeometry x="610" y="-40" width="120" height="80" as="geometry" />
        </mxCell>
        <mxCell id="1tsikH5WmUHc8Izep_Gd-45" value="" style="endArrow=none;dashed=1;html=1;rounded=0;exitX=0.68;exitY=0.997;exitDx=0;exitDy=0;exitPerimeter=0;entryX=0;entryY=0.5;entryDx=0;entryDy=0;startArrow=block;startFill=1;" parent="1" source="1tsikH5WmUHc8Izep_Gd-6" target="1tsikH5WmUHc8Izep_Gd-46" edge="1">
          <mxGeometry width="50" height="50" relative="1" as="geometry">
            <mxPoint x="400" y="630" as="sourcePoint" />
            <mxPoint x="570" y="630" as="targetPoint" />
          </mxGeometry>
        </mxCell>
        <mxCell id="1tsikH5WmUHc8Izep_Gd-47" value="&amp;lt;&amp;lt;extend&amp;gt;&amp;gt;" style="edgeLabel;html=1;align=center;verticalAlign=middle;resizable=0;points=[];" parent="1tsikH5WmUHc8Izep_Gd-45" connectable="0" vertex="1">
          <mxGeometry x="-0.0872" y="2" relative="1" as="geometry">
            <mxPoint as="offset" />
          </mxGeometry>
        </mxCell>
        <mxCell id="_ZxboUvbKBxjU5w70rnp-2" value="" style="endArrow=none;html=1;rounded=0;" parent="1" edge="1">
          <mxGeometry width="50" height="50" relative="1" as="geometry">
            <mxPoint x="200" y="270" as="sourcePoint" />
            <mxPoint x="200" y="110" as="targetPoint" />
          </mxGeometry>
        </mxCell>
        <mxCell id="_ZxboUvbKBxjU5w70rnp-3" value="" style="endArrow=none;html=1;rounded=0;entryX=0;entryY=0.5;entryDx=0;entryDy=0;" parent="1" target="1tsikH5WmUHc8Izep_Gd-4" edge="1">
          <mxGeometry width="50" height="50" relative="1" as="geometry">
            <mxPoint x="200" y="110" as="sourcePoint" />
            <mxPoint x="220" y="10" as="targetPoint" />
          </mxGeometry>
        </mxCell>
        <mxCell id="_ZxboUvbKBxjU5w70rnp-4" value="" style="endArrow=none;html=1;rounded=0;exitX=0;exitY=0.5;exitDx=0;exitDy=0;" parent="1" source="1tsikH5WmUHc8Izep_Gd-6" edge="1">
          <mxGeometry width="50" height="50" relative="1" as="geometry">
            <mxPoint x="180" y="280" as="sourcePoint" />
            <mxPoint x="200" y="420" as="targetPoint" />
          </mxGeometry>
        </mxCell>
        <mxCell id="_ZxboUvbKBxjU5w70rnp-5" value="" style="endArrow=none;html=1;rounded=0;" parent="1" edge="1">
          <mxGeometry width="50" height="50" relative="1" as="geometry">
            <mxPoint x="150" y="250" as="sourcePoint" />
            <mxPoint x="200" y="250" as="targetPoint" />
          </mxGeometry>
        </mxCell>
        <mxCell id="_ZxboUvbKBxjU5w70rnp-6" value="" style="endArrow=block;dashed=1;html=1;rounded=0;edgeStyle=orthogonalEdgeStyle;curved=1;exitX=0.5;exitY=1;exitDx=0;exitDy=0;entryX=0.5;entryY=1;entryDx=0;entryDy=0;startArrow=none;startFill=0;endFill=1;" parent="1" source="1tsikH5WmUHc8Izep_Gd-6" target="1tsikH5WmUHc8Izep_Gd-11" edge="1">
          <mxGeometry width="50" height="50" relative="1" as="geometry">
            <mxPoint x="350" y="660" as="sourcePoint" />
            <mxPoint x="970" y="390" as="targetPoint" />
            <Array as="points">
              <mxPoint x="350" y="620" />
              <mxPoint x="970" y="620" />
            </Array>
          </mxGeometry>
        </mxCell>
        <mxCell id="_ZxboUvbKBxjU5w70rnp-7" value="&amp;lt;&amp;lt;include&amp;gt;&amp;gt;" style="edgeLabel;html=1;align=center;verticalAlign=middle;resizable=0;points=[];" parent="_ZxboUvbKBxjU5w70rnp-6" connectable="0" vertex="1">
          <mxGeometry x="-0.0415" y="-2" relative="1" as="geometry">
            <mxPoint x="-47" y="8" as="offset" />
          </mxGeometry>
        </mxCell>
        <mxCell id="1tsikH5WmUHc8Izep_Gd-46" value="Zelaiaren erreserba ezabatu" style="ellipse;whiteSpace=wrap;html=1;" parent="1" vertex="1">
          <mxGeometry x="610" y="510" width="120" height="80" as="geometry" />
        </mxCell>
        <mxCell id="_ZxboUvbKBxjU5w70rnp-8" value="" style="endArrow=block;dashed=1;html=1;rounded=0;edgeStyle=orthogonalEdgeStyle;curved=1;exitX=0.5;exitY=0;exitDx=0;exitDy=0;startArrow=none;startFill=0;endFill=1;entryX=0.5;entryY=0;entryDx=0;entryDy=0;" parent="1" source="1tsikH5WmUHc8Izep_Gd-4" target="1tsikH5WmUHc8Izep_Gd-11" edge="1">
          <mxGeometry width="50" height="50" relative="1" as="geometry">
            <mxPoint x="330" y="-480" as="sourcePoint" />
            <mxPoint x="970" y="190" as="targetPoint" />
            <Array as="points">
              <mxPoint x="350" y="-70" />
              <mxPoint x="970" y="-70" />
            </Array>
          </mxGeometry>
        </mxCell>
        <mxCell id="_ZxboUvbKBxjU5w70rnp-9" value="&amp;lt;&amp;lt;include&amp;gt;&amp;gt;" style="edgeLabel;html=1;align=center;verticalAlign=middle;resizable=0;points=[];" parent="_ZxboUvbKBxjU5w70rnp-8" connectable="0" vertex="1">
          <mxGeometry x="-0.0415" y="-2" relative="1" as="geometry">
            <mxPoint x="-47" y="-12" as="offset" />
          </mxGeometry>
        </mxCell>
        <mxCell id="_ZxboUvbKBxjU5w70rnp-10" value="Bazkidea" style="shape=umlActor;verticalLabelPosition=bottom;verticalAlign=top;html=1;outlineConnect=0;" parent="1" vertex="1">
          <mxGeometry x="120" y="390" width="30" height="60" as="geometry" />
        </mxCell>
        <mxCell id="_ZxboUvbKBxjU5w70rnp-11" value="Kluba" style="shape=umlActor;verticalLabelPosition=bottom;verticalAlign=top;html=1;outlineConnect=0;" parent="1" vertex="1">
          <mxGeometry x="120" y="220" width="30" height="60" as="geometry" />
        </mxCell>
        <mxCell id="_ZxboUvbKBxjU5w70rnp-13" value="" style="endArrow=block;html=1;rounded=0;endFill=0;strokeWidth=1;endSize=13;exitX=0.5;exitY=0;exitDx=0;exitDy=0;exitPerimeter=0;" parent="1" source="_ZxboUvbKBxjU5w70rnp-10" edge="1">
          <mxGeometry width="50" height="50" relative="1" as="geometry">
            <mxPoint x="100" y="570" as="sourcePoint" />
            <mxPoint x="135" y="300" as="targetPoint" />
          </mxGeometry>
        </mxCell>
      </root>
    </mxGraphModel>
  </diagram>
</mxfile>
